<?xml version="1.0" encoding="UTF-8" standalone="no"?>
<!-- Generator: Adobe Illustrator 25.3.1, SVG Export Plug-In . SVG Version: 6.00 Build 0)  -->

<svg
   version="1.1"
   id="Layer_1"
   x="0px"
   y="0px"
   viewBox="0 0 400 225"
   style="enable-background:new 0 0 400 225;"
   xml:space="preserve"
   sodipodi:docname="icon.svg"
   inkscape:version="1.2.2 (b0a8486541, 2022-12-01)"
   xmlns:inkscape="http://www.inkscape.org/namespaces/inkscape"
   xmlns:sodipodi="http://sodipodi.sourceforge.net/DTD/sodipodi-0.dtd"
   xmlns:xlink="http://www.w3.org/1999/xlink"
   xmlns="http://www.w3.org/2000/svg"
   xmlns:svg="http://www.w3.org/2000/svg"><defs
   id="defs334">
	<defs
   id="defs267">
		<rect
   id="SVGID_1_"
   width="400"
   height="225" />
	</defs>
	
	

		
		
		
	<clipPath
   clipPathUnits="userSpaceOnUse"
   id="clipPath561"><g
     id="g565"><use
       xlink:href="#SVGID_1_"
       style="overflow:visible"
       id="use563" /></g></clipPath><clipPath
   clipPathUnits="userSpaceOnUse"
   id="clipPath567"><g
     id="g571"><use
       xlink:href="#SVGID_1_"
       style="overflow:visible"
       id="use569" /></g></clipPath><clipPath
   clipPathUnits="userSpaceOnUse"
   id="clipPath573"><g
     id="g577"><use
       xlink:href="#SVGID_1_"
       style="overflow:visible"
       id="use575" /></g></clipPath></defs><sodipodi:namedview
   id="namedview332"
   pagecolor="#ffffff"
   bordercolor="#666666"
   borderopacity="1.0"
   inkscape:showpageshadow="2"
   inkscape:pageopacity="0.0"
   inkscape:pagecheckerboard="0"
   inkscape:deskcolor="#d1d1d1"
   showgrid="false"
   inkscape:zoom="1.198546"
   inkscape:cx="256.14369"
   inkscape:cy="211.50628"
   inkscape:window-width="1920"
   inkscape:window-height="1011"
   inkscape:window-x="0"
   inkscape:window-y="0"
   inkscape:window-maximized="1"
   inkscape:current-layer="Layer_1" />
<style
   type="text/css"
   id="style264">
	.st0{clip-path:url(#SVGID_2_);}
	.st1{opacity:0.43;fill:#BFD9EF;enable-background:new    ;}
	.st2{fill:#5443B9;}
	.st3{fill:#E5EFF9;}
	.st4{fill:#363351;}
	.st5{fill:#333333;}
	.st6{opacity:0.2;fill:#5443B9;}
	.st7{opacity:0.2;}
	.st8{fill:#FFFFFF;}
	.st9{fill:#FC707B;}
	.st10{fill:#FFC81A;}
	.st11{fill:#42D2A5;}
	.st12{fill:#55B08B;}
	.st13{fill:#CA6367;}
	.st14{fill:#D0A700;}
</style>

		<g
   id="g600"
   transform="matrix(1.6658248,0,0,1.6658248,-135.91357,-32.510049)"
   style="stroke-width:0.600303"><g
     id="g588"
     style="stroke-width:0.600303"><g
       id="g321"
       clip-path="url(#clipPath567)"
       style="stroke-width:0.600303">
			<path
   class="st8"
   d="m 246.6,98.6 0.1,6.4 c 0,3.8 -2.1,7.3 -5.5,9.1 l -2.9,1.5 -34.6,18.1 c -1.5,0.8 -3,1.1 -4.6,1.2 0,0 -0.1,0 -0.1,0 -2.1,0 -4.2,-0.6 -5.9,-1.9 l -33.8,-23.8 c -1.8,-1.3 -2.9,-3.3 -2.9,-5.5 v -5.2 h -7 v 5.2 c 0,4.5 2.2,8.6 5.9,11.2 l 33.8,23.8 c 2.9,2.1 6.4,3.2 10,3.2 0,0 0,0 0.1,0 2.8,0 5.5,-0.7 7.9,-2 l 36.9,-19.3 0.6,-0.3 c 5.7,-3 9.3,-8.8 9.3,-15.3 l -0.1,-6.5 h -7.2 z"
   id="path308"
   style="stroke-width:0.600303" />
			<path
   class="st4"
   d="m 242.5,56.9 -32,-22.8 c -1.8,-1.3 -3.9,-1.9 -6,-1.9 -1.6,0 -3.2,0.4 -4.8,1.2 -12.7,6.6 -25.4,13.2 -38.1,19.9 -3.4,1.8 -5.5,5.3 -5.5,9.2 l 0.2,41.3 c 0,2.2 1.1,4.3 2.9,5.5 l 33.8,23.8 c 1.8,1.2 3.8,1.9 5.9,1.9 0,0 0.1,0 0.1,0 1.6,0 3.2,-0.4 4.6,-1.2 l 34.6,-18.1 2.9,-1.5 c 3.4,-1.8 5.5,-5.3 5.5,-9.1 l 0.1,-39.8 c 0.1,-3.3 -1.5,-6.5 -4.2,-8.4 z"
   id="path310"
   style="stroke-width:0.600303" />
			<path
   id="rect2994-0-6_1_"
   class="st9"
   d="m 202.1,125.8 37.2,-19.4 -0.2,-38.1 -37.2,19.4 z"
   style="stroke-width:0.600303" />
			<path
   id="rect2912-1-8_1_"
   class="st10"
   d="m 164,103.2 30.6,21.5 -0.2,-37.4 -30.6,-21.5 z"
   style="stroke-width:0.600303" />
			<path
   id="rect2994-6-0-5_1_"
   class="st11"
   d="m 166.4,59 38.1,-19.9 31.9,22.4 -38.1,19.9 z"
   style="stroke-width:0.600303" />
			<polygon
   class="st12"
   points="166.8,58.8 204.2,39.5 198,81.6 "
   id="polygon315"
   style="stroke-width:0.600303" />
			<polygon
   class="st13"
   points="201.8,87.7 239.3,106.5 202.1,125.6 "
   id="polygon317"
   style="stroke-width:0.600303" />
			<polygon
   class="st14"
   points="164,103.3 194.4,124.7 194.3,87.6 "
   id="polygon319"
   style="stroke-width:0.600303" />
		</g></g></g>
	
</svg>
