<svg xmlns="http://www.w3.org/2000/svg" xml:space="preserve" id="Layer_1" x="0" y="0" version="1.1" viewBox="0 0 400 225"><defs id="defs1817"><clipPath id="CLIPPATH_18"><rect id="rect284" width="400" height="225" x="-200" y="-112.5" rx="0" ry="0" transform="translate(41.8 -29.1)"/></clipPath><clipPath id="CLIPPATH_19"><rect id="rect291" width="400" height="225" x="-200" y="-112.5" rx="0" ry="0" transform="translate(-1.4 28.9)"/></clipPath><clipPath id="CLIPPATH_20"><rect id="rect298" width="400" height="225" x="-200" y="-112.5" rx="0" ry="0" transform="translate(-20.6 15.45)"/></clipPath><clipPath id="CLIPPATH_21"><rect id="rect305" width="400" height="225" x="-200" y="-112.5" rx="0" ry="0" transform="translate(20.8 17.25)"/></clipPath><clipPath id="CLIPPATH_22"><rect id="rect312" width="400" height="225" x="-200" y="-112.5" rx="0" ry="0" transform="translate(-1.4 52.25)"/></clipPath><clipPath id="CLIPPATH_23"><rect id="rect319" width="400" height="225" x="-200" y="-112.5" rx="0" ry="0" transform="translate(14.5 51.95)"/></clipPath><clipPath id="CLIPPATH_24"><rect id="rect326" width="400" height="225" x="-200" y="-112.5" rx="0" ry="0" transform="translate(-20.55 5.85)"/></clipPath><clipPath id="CLIPPATH_25"><rect id="rect333" width="400" height="225" x="-200" y="-112.5" rx="0" ry="0" transform="translate(20.8 6.35)"/></clipPath></defs><style id="style1730" type="text/css">.st3{fill:#fff}</style><g id="g2406"><path id="rect1732" d="M0 0h400v225H0z" style="fill:none"/><g id="g2363"><g id="g1738"><path id="rect1734" d="M105.2 37.9h195.6v150.2H105.2z" style="fill:#f0f1f6"/><path id="path1736" d="M301.4 188.7H104.5V37.2h196.9Zm-195.6-1.3h194.3V38.5H105.8Z" style="fill:#e2e3e8"/></g><path id="rect1740" d="M112.6 45.5h181.1v135.6H112.6z" class="st3"/><path id="path1808" d="M195.1 114.2c.1.5-.3 1-.9 1.1H188l2.5 2.5c.4.4.4 1.1 0 1.5l-.6.7c-.2.2-.5.3-.8.3s-.6-.1-.8-.3l-5.6-5.6c-.2-.2-.3-.5-.3-.8s.1-.6.3-.8l5.6-5.6c.2-.2.5-.3.8-.3s.6.1.8.3l.6.6c.4.4.4 1.1 0 1.6L188 112h6.1c.6 0 1 .4 1 1v.1z" class="st3"/><path id="path1810" d="M212.4 113.6c-.1-.5.3-1 .9-1.1h6.2L217 110c-.4-.4-.4-1.1 0-1.5l.6-.7c.2-.2.5-.3.8-.3s.6.1.8.3l5.6 5.6c.2.2.3.5.3.8s-.1.6-.3.8l-5.6 5.6c-.2.2-.5.3-.8.3s-.6-.1-.8-.3l-.6-.6c-.4-.4-.4-1.1 0-1.6l2.5-2.5h-6.1c-.6 0-1-.4-1-1v-.1z" class="st3"/><g id="g962" style="stroke-width:.982741" transform="translate(-347.96 -410.484)scale(1.01756)"><g id="g289" clip-path="url(#CLIPPATH_18)" style="stroke-width:.982741" transform="translate(498.2 569.1)"><clipPath id="clipPath990"><rect id="rect988" width="400" height="225" x="-200" y="-112.5" rx="0" ry="0" transform="translate(41.8 -29.1)"/></clipPath></g><g id="g296" clip-path="url(#CLIPPATH_19)" style="stroke-width:.982741" transform="translate(541.4 511.1)"><clipPath id="clipPath996"><rect id="rect994" width="400" height="225" x="-200" y="-112.5" rx="0" ry="0" transform="translate(-1.4 28.9)"/></clipPath><path id="path294" stroke-linecap="round" d="m242.5 56.9-32-22.8c-1.8-1.3-3.9-1.9-6-1.9q-2.4 0-4.8 1.2C187 40 174.3 46.6 161.6 53.3c-3.4 1.8-5.5 5.3-5.5 9.2l.2 41.3c0 2.2 1.1 4.3 2.9 5.5l33.8 23.8c1.8 1.2 3.8 1.9 5.9 1.9h.1c1.6 0 3.2-.4 4.6-1.2l34.6-18.1 2.9-1.5c3.4-1.8 5.5-5.3 5.5-9.1l.1-39.8c.1-3.3-1.5-6.5-4.2-8.4" style="opacity:1;fill:#363351;fill-rule:nonzero;stroke:none;stroke-width:.982741;stroke-linecap:butt;stroke-linejoin:miter;stroke-miterlimit:4;stroke-dasharray:none;stroke-dashoffset:0" transform="translate(-201.4 -83.6)" vector-effect="non-scaling-stroke"/></g><g id="g303" clip-path="url(#CLIPPATH_20)" style="stroke-width:.982741" transform="translate(560.6 524.55)"><clipPath id="clipPath1002"><rect id="rect1000" width="400" height="225" x="-200" y="-112.5" rx="0" ry="0" transform="translate(-20.6 15.45)"/></clipPath><path id="path301" stroke-linecap="round" d="m202.1 125.8 37.2-19.4-.2-38.1-37.2 19.4z" style="opacity:1;fill:#fc707b;fill-rule:nonzero;stroke:none;stroke-width:.982741;stroke-linecap:butt;stroke-linejoin:miter;stroke-miterlimit:4;stroke-dasharray:none;stroke-dashoffset:0" transform="translate(-220.6 -97.05)" vector-effect="non-scaling-stroke"/></g><g id="g310" clip-path="url(#CLIPPATH_21)" style="stroke-width:.982741" transform="translate(519.2 522.75)"><clipPath id="clipPath1008"><rect id="rect1006" width="400" height="225" x="-200" y="-112.5" rx="0" ry="0" transform="translate(20.8 17.25)"/></clipPath><path id="path308" stroke-linecap="round" d="m164 103.2 30.6 21.5-.2-37.4-30.6-21.5z" style="opacity:1;fill:#ffc81a;fill-rule:nonzero;stroke:none;stroke-width:.982741;stroke-linecap:butt;stroke-linejoin:miter;stroke-miterlimit:4;stroke-dasharray:none;stroke-dashoffset:0" transform="translate(-179.2 -95.25)" vector-effect="non-scaling-stroke"/></g><g id="g317" clip-path="url(#CLIPPATH_22)" style="stroke-width:.982741" transform="translate(541.4 487.75)"><clipPath id="clipPath1014"><rect id="rect1012" width="400" height="225" x="-200" y="-112.5" rx="0" ry="0" transform="translate(-1.4 52.25)"/></clipPath><path id="path315" stroke-linecap="round" d="m166.4 59 38.1-19.9 31.9 22.4-38.1 19.9z" style="opacity:1;fill:#42d2a5;fill-rule:nonzero;stroke:none;stroke-width:.982741;stroke-linecap:butt;stroke-linejoin:miter;stroke-miterlimit:4;stroke-dasharray:none;stroke-dashoffset:0" transform="translate(-201.4 -60.25)" vector-effect="non-scaling-stroke"/></g><g id="g324" clip-path="url(#CLIPPATH_23)" style="stroke-width:.982741" transform="translate(525.5 488.05)"><clipPath id="clipPath1020"><rect id="rect1018" width="400" height="225" x="-200" y="-112.5" rx="0" ry="0" transform="translate(14.5 51.95)"/></clipPath><path id="polygon322" d="m18.7-21.05-6.2 42.1-31.2-22.8z" style="opacity:1;fill:#55b08b;fill-rule:nonzero;stroke:none;stroke-width:.982741;stroke-linecap:butt;stroke-linejoin:miter;stroke-miterlimit:4;stroke-dasharray:none;stroke-dashoffset:0" vector-effect="non-scaling-stroke"/></g><g id="g331" clip-path="url(#CLIPPATH_24)" style="stroke-width:.982741" transform="translate(560.55 534.15)"><clipPath id="clipPath1026"><rect id="rect1024" width="400" height="225" x="-200" y="-112.5" rx="0" ry="0" transform="translate(-20.55 5.85)"/></clipPath><path id="polygon329" d="m18.75-.15-37.2 19.1-.3-37.9z" style="opacity:1;fill:#ca6367;fill-rule:nonzero;stroke:none;stroke-width:.982741;stroke-linecap:butt;stroke-linejoin:miter;stroke-miterlimit:4;stroke-dasharray:none;stroke-dashoffset:0" vector-effect="non-scaling-stroke"/></g><g id="g338" clip-path="url(#CLIPPATH_25)" style="stroke-width:.982741" transform="translate(519.2 533.65)"><clipPath id="clipPath1032"><rect id="rect1030" width="400" height="225" x="-200" y="-112.5" rx="0" ry="0" transform="translate(20.8 6.35)"/></clipPath><path id="polygon336" d="m15.2 18.55-.1-37.1-30.3 15.7z" style="opacity:1;fill:#d0a700;fill-rule:nonzero;stroke:none;stroke-width:.982741;stroke-linecap:butt;stroke-linejoin:miter;stroke-miterlimit:4;stroke-dasharray:none;stroke-dashoffset:0" vector-effect="non-scaling-stroke"/></g></g></g></g></svg>