<svg xmlns="http://www.w3.org/2000/svg" xml:space="preserve" viewBox="0 0 400 225"><defs><clipPath id="b" clipPathUnits="userSpaceOnUse"/><path id="a" d="M0 0h400v225H0z"/></defs><g clip-path="url(#b)" style="stroke-width:.600303" transform="matrix(1.66582 0 0 1.66582 -135.914 -32.51)"><path d="m246.6 98.6.1 6.4c0 3.8-2.1 7.3-5.5 9.1l-2.9 1.5-34.6 18.1c-1.5.8-3 1.1-4.6 1.2h-.1c-2.1 0-4.2-.6-5.9-1.9l-33.8-23.8c-1.8-1.3-2.9-3.3-2.9-5.5v-5.2h-7v5.2c0 4.5 2.2 8.6 5.9 11.2l33.8 23.8c2.9 2.1 6.4 3.2 10 3.2h.1c2.8 0 5.5-.7 7.9-2l36.9-19.3.6-.3c5.7-3 9.3-8.8 9.3-15.3l-.1-6.5h-7.2z" style="fill:#fff;stroke-width:.600303"/><path d="m242.5 56.9-32-22.8c-1.8-1.3-3.9-1.9-6-1.9q-2.4 0-4.8 1.2C187 40 174.3 46.6 161.6 53.3c-3.4 1.8-5.5 5.3-5.5 9.2l.2 41.3c0 2.2 1.1 4.3 2.9 5.5l33.8 23.8c1.8 1.2 3.8 1.9 5.9 1.9h.1c1.6 0 3.2-.4 4.6-1.2l34.6-18.1 2.9-1.5c3.4-1.8 5.5-5.3 5.5-9.1l.1-39.8c.1-3.3-1.5-6.5-4.2-8.4" style="fill:#363351;stroke-width:.600303"/><path d="m202.1 125.8 37.2-19.4-.2-38.1-37.2 19.4z" style="fill:#fc707b;stroke-width:.600303"/><path d="m164 103.2 30.6 21.5-.2-37.4-30.6-21.5z" style="fill:#ffc81a;stroke-width:.600303"/><path d="m166.4 59 38.1-19.9 31.9 22.4-38.1 19.9z" style="fill:#42d2a5;stroke-width:.600303"/><path d="m166.8 58.8 37.4-19.3-6.2 42.1z" style="fill:#55b08b;stroke-width:.600303"/><path d="m201.8 87.7 37.5 18.8-37.2 19.1z" style="fill:#ca6367;stroke-width:.600303"/><path d="m164 103.3 30.4 21.4-.1-37.1z" style="fill:#d0a700;stroke-width:.600303"/></g></svg>